# xmcd
# Track frame offsets:
# 150
# 19762
# 40590
# 56832
# 72150
# 102450
# 120452
# 147312
# 175315
# 198085
# 219377
#
# Disc length: 3160 seconds
# Revision: 1
# Processed by: cddbd v1.5.1PL2 Copyright (c) Steve Scherf et al.
# Submitted via: VisiTrax 2.9.10.228 - For more info visit www.synapsa.com
#
DISCID=9a0c560b
DTITLE=Vaughan, Sarah - Sarah Vaughan Sings for Lovers
DYEAR=2006
DGENRE=Jazz
TTITLE0=In a Sentimental Mood
TTITLE1=Easy Living
TTITLE2=You are too beautiful
TTITLE3=Love Dance
TTITLE4=More than you Know
TTITLE5=I didn't know what time it Was
TTITLE6=Prelude to a Kiss
TTITLE7=My Old Flame
TTITLE8=Day-Dream
TTITLE9=Like a Lover (O Cantador)
TTITLE10=Tonight I Shall Sleep (with a smile on my face)
EXTD=Recordings made between 1977 and 1982.\n\nReleased: 2006  compilatio
EXTD=n\nLabel: Fantasy  \nCredits:\nSarah Vaughan (vocals]\nJoe Pass (guita
EXTD=r]\nOscar Peterson (piano]\nRoland Hanna (piano]\nRay Brown (upright b
EXTD=ass]\nLouie Bellson (drums]\nString Quartet
EXTT0=
EXTT1=
EXTT2=
EXTT3=
EXTT4=
EXTT5=
EXTT6=
EXTT7=
EXTT8=
EXTT9=
EXTT10=
PLAYORDER=
